<?xml version="1.0" encoding="UTF-8"?>
<svg version="1.1" xmlns="http://www.w3.org/2000/svg" width="48" height="48">
<path d="M0 0 C1.05960938 -0.00386719 2.11921875 -0.00773438 3.2109375 -0.01171875 C4.31695313 -0.00011719 5.42296875 0.01148437 6.5625 0.0234375 C8.22152344 0.00603516 8.22152344 0.00603516 9.9140625 -0.01171875 C10.97367188 -0.00785156 12.03328125 -0.00398437 13.125 0 C14.58099609 0.00507568 14.58099609 0.00507568 16.06640625 0.01025391 C18.96679666 0.46131227 19.76620045 1.14396965 21.5625 3.3984375 C22.0575 3.91921875 22.5525 4.44 23.0625 4.9765625 C29.71814267 12.39483089 31.13972575 18.06823958 30.91796875 28.015625 C30.20983025 34.75461336 27.00290386 39.40298316 22.5625 44.3984375 C21.9754126 45.09461182 21.3883252 45.79078613 20.78344727 46.50805664 C18.01010051 48.86861769 16.62779343 48.9014419 13.02734375 48.89453125 C11.97095703 48.89517578 10.91457031 48.89582031 9.82617188 48.89648438 C8.72853516 48.87650391 7.63089844 48.85652344 6.5 48.8359375 C5.39849609 48.84302734 4.29699219 48.85011719 3.16210938 48.85742188 C-4.95586741 48.79295413 -4.95586741 48.79295413 -7.18139648 46.9699707 C-7.59591064 46.45136475 -8.0104248 45.93275879 -8.4375 45.3984375 C-9.18 44.61726563 -9.18 44.61726563 -9.9375 43.8203125 C-16.59251953 36.40273865 -18.02115216 30.7255506 -17.7890625 20.77734375 C-17.02905735 13.47284982 -13.24507983 8.69910244 -8.4375 3.3984375 C-7.7878125 2.58511963 -7.7878125 2.58511963 -7.125 1.75537109 C-4.74138601 -0.16131388 -3.0307789 0.01056546 0 0 Z " fill="#23A7FB" transform="translate(17.4375,-0.3984375)"/>
<path d="M0 0 C2.41095349 2.41095349 3.92328381 4.86722198 5.625 7.8125 C6.07875 8.534375 6.5325 9.25625 7 10 C7.66 10 8.32 10 9 10 C10.55503455 8.01512093 10.55503455 8.01512093 12.0625 5.5625 C14.95217391 1.04782609 14.95217391 1.04782609 16 0 C19.4375 0.25 19.4375 0.25 23 1 C25.17704729 4.26557094 25.41583924 5.21827094 25 9 C23.94604492 11.08056641 23.94604492 11.08056641 22.48046875 13.1015625 C21.68866211 14.20757813 21.68866211 14.20757813 20.88085938 15.3359375 C20.32205078 16.09132813 19.76324219 16.84671875 19.1875 17.625 C18.64029297 18.388125 18.09308594 19.15125 17.52929688 19.9375 C11.11374397 28.80262765 11.11374397 28.80262765 7.53125 29.4375 C4.17554407 28.85750144 3.46017719 27.73685117 1.5 25 C0.90832031 24.18273437 0.31664062 23.36546875 -0.29296875 22.5234375 C-2.25010485 19.63027979 -4.15352607 16.71804208 -5.95703125 13.7265625 C-6.92589045 12.12268323 -7.96060419 10.55909372 -9 9 C-9.32502803 5.87973093 -9.51151479 3.85252465 -7.875 1.125 C-5.04245644 -0.57452613 -3.23653093 -0.52841321 0 0 Z " fill="#7CCBFA" transform="translate(16,11)"/>
<path d="M0 0 C1.2065625 0.0309375 1.2065625 0.0309375 2.4375 0.0625 C2.4375 4.83534771 1.28974665 6.25031433 -1.375 10.125 C-2.08269531 11.16785156 -2.79039063 12.21070313 -3.51953125 13.28515625 C-6.67910371 17.58048325 -6.67910371 17.58048325 -8.5625 19.0625 C-11.625 19 -11.625 19 -14.5625 18.0625 C-16.80579772 15.20739381 -16.75917385 12.60262923 -16.5625 9.0625 C-15.2425 8.7325 -13.9225 8.4025 -12.5625 8.0625 C-12.2325 8.7225 -11.9025 9.3825 -11.5625 10.0625 C-10.9025 10.0625 -10.2425 10.0625 -9.5625 10.0625 C-8.00746545 8.07762093 -8.00746545 8.07762093 -6.5 5.625 C-2.945633 0.07184471 -2.945633 0.07184471 0 0 Z " fill="#BDEDFE" transform="translate(34.5625,10.9375)"/>
<path d="M0 0 C2.12943217 1.68580047 2.92572398 2.6073982 3.4375 5.3125 C2.84911808 8.92684608 1.20656832 11.12477461 -1 14 C-1.33 14 -1.66 14 -2 14 C-2.1799928 8.78020872 -1.97094808 4.92737019 0 0 Z " fill="#72CCFE" transform="translate(38,12)"/>
<path d="M0 0 C0.66 0.33 1.32 0.66 2 1 C1.814375 1.804375 1.62875 2.60875 1.4375 3.4375 C1.2209375 4.7059375 1.2209375 4.7059375 1 6 C1.33 6.33 1.66 6.66 2 7 C2.04063832 8.66617115 2.042721 10.33388095 2 12 C1.34 11.01 0.68 10.02 0 9 C-2.09684226 6.61722471 -4.1072274 5.29676013 -7 4 C-5.35 3.34 -3.7 2.68 -2 2 C-1.67 2.33 -1.34 2.66 -1 3 C-0.67 2.01 -0.34 1.02 0 0 Z " fill="#31A7F7" transform="translate(40,6)"/>
<path d="M0 0 C0.99 0.33 1.98 0.66 3 1 C2.34 2.65 1.68 4.3 1 6 C1.66 6.33 2.32 6.66 3 7 C0.03 7.66 -2.94 8.32 -6 9 C-5.566875 8.43410156 -5.13375 7.86820313 -4.6875 7.28515625 C-4.130625 6.55167969 -3.57375 5.81820313 -3 5.0625 C-2.443125 4.33160156 -1.88625 3.60070312 -1.3125 2.84765625 C0.09651945 1.24185632 0.09651945 1.24185632 0 0 Z " fill="#1CA3ED" transform="translate(9,2)"/>
<path d="M0 0 C2.475 0.495 2.475 0.495 5 1 C5.33 1.99 5.66 2.98 6 4 C4.68 4.99 3.36 5.98 2 7 C1.34 6.67 0.68 6.34 0 6 C0 4.02 0 2.04 0 0 Z " fill="#0F8CE9" transform="translate(34,41)"/>
<path d="M0 0 C0.66 1.32 1.32 2.64 2 4 C1.195625 4.61875 0.39125 5.2375 -0.4375 5.875 C-3.03874519 7.74164041 -3.03874519 7.74164041 -4 10 C-4.66 9.67 -5.32 9.34 -6 9 C-4.02 6.03 -2.04 3.06 0 0 Z " fill="#35AAF3" transform="translate(37,24)"/>
<path d="M0 0 C1.875 1.5 1.875 1.5 3 3 C2.67 3.66 2.34 4.32 2 5 C1.46375 4.67 0.9275 4.34 0.375 4 C-2.5391061 2.77300796 -4.86867708 2.85766714 -8 3 C-8 2.34 -8 1.68 -8 1 C-5.20129973 -0.39935013 -3.09501208 -0.25265405 0 0 Z " fill="#66CBFE" transform="translate(16,11)"/>
<path d="M0 0 C0.66 0.33 1.32 0.66 2 1 C1.67 2.32 1.34 3.64 1 5 C-0.32 5.33 -1.64 5.66 -3 6 C-3.33 5.01 -3.66 4.02 -4 3 C-2.68 2.01 -1.36 1.02 0 0 Z " fill="#D0F0FD" transform="translate(33,14)"/>
<path d="M0 0 C1.32 0 2.64 0 4 0 C3.6875 1.9375 3.6875 1.9375 3 4 C2.01 4.33 1.02 4.66 0 5 C0 3.35 0 1.7 0 0 Z " fill="#D5ECFF" transform="translate(23,23)"/>
<path d="M0 0 C0.99 0.495 0.99 0.495 2 1 C1.01 1.495 1.01 1.495 0 2 C0 1.34 0 0.68 0 0 Z " fill="#0047CD" transform="translate(5,5)"/>
<path d="M0 0 C0.99 0.495 0.99 0.495 2 1 C1.01 1.495 1.01 1.495 0 2 C0 1.34 0 0.68 0 0 Z " fill="#154778" transform="translate(7,3)"/>
<path d="" fill="#002A7F" transform="translate(0,0)"/>
<path d="" fill="#005555" transform="translate(0,0)"/>
<path d="" fill="#006A95" transform="translate(0,0)"/>
<path d="" fill="#006AFF" transform="translate(0,0)"/>
<path d="" fill="#0080BF" transform="translate(0,0)"/>
<path d="" fill="#002A7F" transform="translate(0,0)"/>
<path d="" fill="#0055D4" transform="translate(0,0)"/>
<path d="" fill="#4080FF" transform="translate(0,0)"/>
<path d="" fill="#000080" transform="translate(0,0)"/>
<path d="" fill="#0055AA" transform="translate(0,0)"/>
<path d="" fill="#3366CC" transform="translate(0,0)"/>
<path d="" fill="#0066CC" transform="translate(0,0)"/>
<path d="" fill="#0080FF" transform="translate(0,0)"/>
<path d="" fill="#0055AA" transform="translate(0,0)"/>
<path d="" fill="#0080BF" transform="translate(0,0)"/>
<path d="" fill="#0080BF" transform="translate(0,0)"/>
<path d="" fill="#008080" transform="translate(0,0)"/>
<path d="" fill="#008080" transform="translate(0,0)"/>
<path d="" fill="#0000FF" transform="translate(0,0)"/>
<path d="" fill="#008080" transform="translate(0,0)"/>
<path d="" fill="#0080FF" transform="translate(0,0)"/>
<path d="" fill="#000080" transform="translate(0,0)"/>
<path d="" fill="#0080FF" transform="translate(0,0)"/>
<path d="" fill="#000080" transform="translate(0,0)"/>
<path d="" fill="#008080" transform="translate(0,0)"/>
<path d="" fill="#0080BF" transform="translate(0,0)"/>
<path d="" fill="#0055AA" transform="translate(0,0)"/>
<path d="" fill="#0055AA" transform="translate(0,0)"/>
<path d="" fill="#0066CC" transform="translate(0,0)"/>
<path d="" fill="#0055AA" transform="translate(0,0)"/>
<path d="" fill="#4080FF" transform="translate(0,0)"/>
</svg>
